<svg width="69" height="70" viewBox="0 0 69 70" fill="none" xmlns="http://www.w3.org/2000/svg">
<path d="M60.24 0.839996C62.672 0.839996 64.656 1.64 66.192 3.23999C67.728 4.84 68.496 6.92 68.496 9.48V61.704C68.496 64.136 67.792 66.056 66.384 67.464C64.976 68.872 63.12 69.576 60.816 69.576C58.576 69.576 56.72 68.872 55.248 67.464C53.84 66.056 53.136 64.136 53.136 61.704V33.48L42.192 53.64C41.104 55.688 39.952 57.16 38.736 58.056C37.52 58.888 36.08 59.304 34.416 59.304C32.752 59.304 31.312 58.888 30.096 58.056C28.88 57.16 27.728 55.688 26.64 53.64L15.792 34.056V61.704C15.792 64.072 15.056 65.992 13.584 67.464C12.176 68.872 10.32 69.576 8.016 69.576C5.776 69.576 3.92 68.872 2.448 67.464C1.04 66.056 0.336 64.136 0.336 61.704V9.48C0.336 6.92 1.104 4.84 2.64 3.23999C4.24 1.64 6.256 0.839996 8.688 0.839996C10.416 0.839996 11.984 1.352 13.392 2.376C14.8 3.336 15.984 4.744 16.944 6.6L34.608 39.816L52.176 6.6C54.16 2.76 56.848 0.839996 60.24 0.839996Z" fill="black"/>
</svg>
